<svg id="Warstwa_1" data-name="Warstwa 1" xmlns="http://www.w3.org/2000/svg" viewBox="0 0 48 48"><defs><style>.cls-1{fill:#3fac2b;}</style></defs><g id="live-chat"><path id="Path_171" data-name="Path 171" class="cls-1" d="M43.78,14.17H40.84a18.31,18.31,0,0,0-33.72,0H4.22A4.21,4.21,0,0,0,0,18.37V24a4.22,4.22,0,0,0,4.22,4.21H10l-.6-1.84A15.49,15.49,0,0,1,38.59,16v0a11.48,11.48,0,0,1,.66,2.56,15.31,15.31,0,0,1-.69,7.68v0A15.45,15.45,0,0,1,24,36.59a4.21,4.21,0,1,0,4.2,4.23V38.91A18.24,18.24,0,0,0,40.82,28.19h3A4.22,4.22,0,0,0,48,24v-5.6a4.21,4.21,0,0,0-4.22-4.21Z"/><path id="Path_172" data-name="Path 172" class="cls-1" d="M11.34,31v2.8H24A12.64,12.64,0,1,0,14.06,29,2.81,2.81,0,0,1,11.34,31ZM28.22,19.77H31v2.81H28.22Zm-5.62,0h2.81v2.81H22.6Zm-5.63,0h2.81v2.81H17Z"/></g></svg>