<svg id="Warstwa_1" data-name="Warstwa 1" xmlns="http://www.w3.org/2000/svg" viewBox="0 0 48 48"><defs><style>.cls-1{fill:#ff7f11;}</style></defs><path class="cls-1" d="M24,3.82a3.87,3.87,0,1,0,3.89,3.87A3.89,3.89,0,0,0,24,3.82Zm0,6.34a2.47,2.47,0,1,1,2.48-2.47A2.48,2.48,0,0,1,24,10.16Z"/><path class="cls-1" d="M25.38,19.72H15.63a.7.7,0,0,0-.7.7V27a.69.69,0,0,0,.7.69H32.36a.7.7,0,0,0,.71-.69V20.42a.7.7,0,0,0-.7-.7h-3.8a.7.7,0,1,0,0,1.39h3.1v5.14H16.33V21.11h9.05a.7.7,0,1,0,0-1.39Z"/><path class="cls-1" d="M26,31.19H22a.7.7,0,0,0,0,1.39H26a.7.7,0,0,0,0-1.39Z"/><path class="cls-1" d="M26,34.9H22a.69.69,0,0,0,0,1.38H26a.69.69,0,0,0,0-1.38Z"/><path class="cls-1" d="M33.05,48a.71.71,0,0,0,.7-.7V40.43l.2,0c1.48-.24,2.67-.47,3.75-.72a.7.7,0,0,0,.55-.68V2.2a.69.69,0,0,0-.55-.67,62,62,0,0,0-27.4,0,.69.69,0,0,0-.55.67V39a.78.78,0,0,0,.59.68c1.11.26,2.31.49,3.75.72l.21,0V47.3a.7.7,0,1,0,1.39,0V40.62l.28,0c.9.11,1.76.21,2.56.28l.22,0V47.3a.7.7,0,1,0,1.39,0V41.08l.26,0c1.35.07,2.54.11,3.62.11s2.27,0,3.62-.11l.26,0V47.3a.7.7,0,1,0,1.4,0V41l.22,0c.8-.07,1.67-.16,2.55-.28l.28,0V47.3A.71.71,0,0,0,33.05,48ZM17.65,1.72l.22,0a62.15,62.15,0,0,1,12.35,0l.22,0V12.41a1.19,1.19,0,0,1-1.19,1.18H18.84a1.18,1.18,0,0,1-1.19-1.18Zm6.4,38.08A60,60,0,0,1,11.4,38.47l-.2,0V2.75l.19,0c1.33-.28,2.78-.52,4.58-.77l.28,0V12.42A2.58,2.58,0,0,0,18.84,15H29.25a2.58,2.58,0,0,0,2.59-2.57V1.9l.28,0c1.79.25,3.25.49,4.58.77l.2,0V38.43l-.2,0A60,60,0,0,1,24.05,39.8Z"/></svg>