<svg id="Warstwa_1" data-name="Warstwa 1" xmlns="http://www.w3.org/2000/svg" viewBox="0 0 48 48"><defs><style>.cls-1,.cls-2{fill:#ff7f11;}.cls-1{fill-rule:evenodd;}</style></defs><path class="cls-1" d="M47,18.67c-1.9-9.45-11.19-16.58-22.08-17h-.15v-1a.75.75,0,0,0-1.49,0v1h-.15c-10.91.37-20,7.22-22,16.67a2.22,2.22,0,0,0,1.11,2.46,2.75,2.75,0,0,0,2.72-.05A11.61,11.61,0,0,1,8,19.46a6.38,6.38,0,0,1,3.69.69,1.83,1.83,0,0,0,1.51,0l.1,0,.07.07a1.79,1.79,0,0,0,1.92.28,14.79,14.79,0,0,1,2-.79,6.24,6.24,0,0,1,1.86-.34h.11a7.15,7.15,0,0,1,2.2.55,19.65,19.65,0,0,1,1.79.85l.08,0v2a.75.75,0,0,0,1.49,0V20.9l.09,0,.17-.09a16.16,16.16,0,0,1,1.9-.93,6.22,6.22,0,0,1,2.17-.52,9,9,0,0,1,3.28,1A1.81,1.81,0,0,0,34.27,20l.07-.07.1,0a1.84,1.84,0,0,0,1.49,0A10.08,10.08,0,0,1,38,19.38a4,4,0,0,1,1.91.06,19.06,19.06,0,0,1,3.31,1.61,2.62,2.62,0,0,0,2.64,0A2.22,2.22,0,0,0,47,18.67Zm-13.7-.4c0,.2,0,.39,0,.58V19L33,19a9.8,9.8,0,0,0-3.94-1.15,7.85,7.85,0,0,0-2.74.64,16.21,16.21,0,0,0-2.08,1,.31.31,0,0,1-.13,0,.2.2,0,0,1-.11,0,18.75,18.75,0,0,0-2.07-1,8.38,8.38,0,0,0-2.71-.67,7.65,7.65,0,0,0-2.48.42,16.21,16.21,0,0,0-2.14.86l0,0h-.06l-.13,0,0-.14a14.25,14.25,0,0,1,.9-5.34l.06-.19a.74.74,0,1,0-1.4-.48l-.32.92c-.06.18-.11.35-.16.53a15.57,15.57,0,0,0-.58,4,.36.36,0,0,1-.2.29.39.39,0,0,1-.36.06A7.51,7.51,0,0,0,7.62,18a13.35,13.35,0,0,0-3.49,1.51,1.28,1.28,0,0,1-.65.18,1.13,1.13,0,0,1-.57-.15.72.72,0,0,1-.39-.84c1.74-8,9.07-14.11,18.25-15.29l.54-.07-.43.34a25.36,25.36,0,0,0-4,4.06c-.12.15-.23.3-.34.46s-.39.53-.57.8l-.47.74c-.09.14-.17.28-.25.42a.74.74,0,0,0,.29.92.76.76,0,0,0,1-.22s0,0,0,0a9,9,0,0,1,.51-.81l.05-.08c.24-.37.51-.73.78-1.1a23.27,23.27,0,0,1,6-5.46L24,3.34,24,3.4a26.29,26.29,0,0,1,5.68,5.54,16.65,16.65,0,0,1,3.48,8q0,.48.06,1ZM44.58,20A1.29,1.29,0,0,1,44,19.8a21,21,0,0,0-3.56-1.73A5.29,5.29,0,0,0,37.74,18a11,11,0,0,0-2.39.75.42.42,0,0,1-.41-.07.56.56,0,0,1-.24-.35,16.88,16.88,0,0,0-3.63-9.94,28.54,28.54,0,0,0-4.35-4.68l-.5-.43.66.08c9.35,1.09,17,7.52,18.65,15.63a.81.81,0,0,1-.39.88h0A1.13,1.13,0,0,1,44.58,20Z"/><path class="cls-1" d="M10.14,28.15A5.13,5.13,0,0,0,5,33.26V34a5.14,5.14,0,0,0,10.28,0v-.77A5.13,5.13,0,0,0,10.14,28.15ZM13.88,34A3.74,3.74,0,0,1,6.4,34v-.77a3.74,3.74,0,0,1,7.48,0Z"/><path class="cls-2" d="M40.06,41.06A4.89,4.89,0,0,1,45,45.93a.7.7,0,1,0,1.4,0,6.28,6.28,0,0,0-6.29-6.26H35.42a6.24,6.24,0,0,0-3.58,1.11l-.17.12-.12-.17a6.1,6.1,0,0,0-5-2.6H21.14a6.12,6.12,0,0,0-5.07,2.69L16,41l-.17-.13a6.32,6.32,0,0,0-3.71-1.2H7.44a6.28,6.28,0,0,0-6.3,6.26.7.7,0,1,0,1.4,0,4.9,4.9,0,0,1,4.9-4.87h4.63a4.92,4.92,0,0,1,3,1l.1.07.14.08,0,.16A6,6,0,0,0,15,44.21v3.07a.7.7,0,1,0,1.4,0V44.21a4.7,4.7,0,0,1,4.7-4.68h5.41a4.7,4.7,0,0,1,4.7,4.68v3.07a.7.7,0,1,0,1.4,0V44.21a6.09,6.09,0,0,0-.3-1.9l-.05-.13.12-.09a4.85,4.85,0,0,1,3-1Z"/><path class="cls-1" d="M37.35,28.15a5.13,5.13,0,0,0-5.14,5.11V34a5.14,5.14,0,0,0,10.28,0v-.77A5.13,5.13,0,0,0,37.35,28.15ZM41.09,34a3.74,3.74,0,0,1-7.47,0v-.77a3.74,3.74,0,0,1,7.47,0Z"/><path class="cls-1" d="M23.85,25.46a5.44,5.44,0,0,0-5.45,5.42v.83a5.45,5.45,0,0,0,10.9,0v-.83A5.44,5.44,0,0,0,23.85,25.46Zm4,6.25a4.05,4.05,0,0,1-8.1,0v-.83a4.05,4.05,0,0,1,8.1,0Z"/></svg>