<svg id="Warstwa_1" data-name="Warstwa 1" xmlns="http://www.w3.org/2000/svg" viewBox="0 0 48 48"><defs><style>.cls-1{fill:#ff7f11;}</style></defs><path class="cls-1" d="M40.45,16.82a3.73,3.73,0,0,1-1-3.13,5.17,5.17,0,0,0-4.25-5.85A3.74,3.74,0,0,1,32.51,5.9a5.16,5.16,0,0,0-6.87-2.23,3.75,3.75,0,0,1-3.3,0A5.17,5.17,0,0,0,15.46,5.9a3.72,3.72,0,0,1-2.67,1.94,5.18,5.18,0,0,0-4.25,5.85,3.68,3.68,0,0,1-1,3.13,5.18,5.18,0,0,0,0,7.23,3.69,3.69,0,0,1,1,3.14.74.74,0,0,0,.62.82.72.72,0,0,0,.82-.62,5.19,5.19,0,0,0-1.41-4.34,3.73,3.73,0,0,1,0-5.22A5.2,5.2,0,0,0,10,13.49,3.74,3.74,0,0,1,13,9.26a5.15,5.15,0,0,0,3.7-2.68A3.72,3.72,0,0,1,21.7,5a5.17,5.17,0,0,0,4.57,0,3.72,3.72,0,0,1,5,1.61,5.17,5.17,0,0,0,3.7,2.68A3.76,3.76,0,0,1,38,13.49a5.15,5.15,0,0,0,1.41,4.34,3.75,3.75,0,0,1,0,5.22A5.15,5.15,0,0,0,38,27.39a.71.71,0,0,0,.71.62.73.73,0,0,0,.55-.25.69.69,0,0,0,.17-.57,3.75,3.75,0,0,1,1-3.14A5.18,5.18,0,0,0,40.45,16.82Z"/><path class="cls-1" d="M34.19,26.28a.71.71,0,0,0,.55,0,.69.69,0,0,0,.42-.36,12.46,12.46,0,1,0-21,2.12.74.74,0,0,0,.57.27.71.71,0,0,0,.65-.4.68.68,0,0,0-.08-.76,11,11,0,1,1,18.56-1.88.73.73,0,0,0,0,.56A.7.7,0,0,0,34.19,26.28Z"/><path class="cls-1" d="M31.25,18.48a2.29,2.29,0,0,0-1.88-1.58l-1.81-.27a.87.87,0,0,1-.66-.48c-.3-.59-.49-1-.61-1.24l-.05-.1h0l-.15-.3a2.33,2.33,0,0,0-4.18,0l-.81,1.64a.87.87,0,0,1-.66.48l-1.81.27a2.33,2.33,0,0,0-1.29,4l1.31,1.28a.89.89,0,0,1,.25.78l-.31,1.8A2.33,2.33,0,0,0,22,27.19l1.62-.86a.89.89,0,0,1,.82,0l1.62.86A2.29,2.29,0,0,0,28.48,27a2.33,2.33,0,0,0,.93-2.28l-.31-1.8a.89.89,0,0,1,.25-.78l1.31-1.28A2.31,2.31,0,0,0,31.25,18.48Zm-1.6,1.35-1.31,1.28a2.33,2.33,0,0,0-.67,2.06L28,25a.88.88,0,0,1-.35.86.87.87,0,0,1-.51.17.91.91,0,0,1-.42-.11l-1.62-.85a2.35,2.35,0,0,0-2.16,0l-1.62.85a.87.87,0,0,1-.93-.06A.86.86,0,0,1,20,25l.31-1.81a2.33,2.33,0,0,0-.67-2.06l-1.31-1.28a.87.87,0,0,1,.49-1.5l1.81-.26a2.32,2.32,0,0,0,1.75-1.28l.81-1.64a.88.88,0,0,1,1.58,0v0l.05.11c.09.17.29.57.75,1.51a2.32,2.32,0,0,0,1.75,1.28l1.81.26a.87.87,0,0,1,.49,1.5Z"/><path class="cls-1" d="M45.86,39v0l2.07-4.85a.69.69,0,0,0-.06-.68.73.73,0,0,0-.61-.33H41.48V30.23a.72.72,0,0,0-.5-.68.85.85,0,0,0-.23,0h-8a.72.72,0,1,0,0,1.44H40V33.8h0v5.7H8V31H29.82a.72.72,0,0,0,0-1.44H7.25a.72.72,0,0,0-.73.72v2.86H.73a.73.73,0,0,0-.61.33.69.69,0,0,0-.06.68L2.14,39v0L.06,43.86a.69.69,0,0,0,.06.68.73.73,0,0,0,.61.33H13a.73.73,0,0,0,.72-.72V41H34.31v3.2h0a0,0,0,0,1,0,0,.72.72,0,0,0,.72.7H47.27a.73.73,0,0,0,.61-.33.69.69,0,0,0,.06-.68ZM12.24,43.42H1.83l0-.11,1.73-4a.73.73,0,0,0,0-.58L1.83,34.54H6.52v5.69a.72.72,0,0,0,.73.72h5Zm23.52,0V41h5a.72.72,0,0,0,.73-.72V34.54h4.69l0,.11-1.73,4a.73.73,0,0,0,0,.58l1.77,4.15Z"/></svg>