<svg id="Warstwa_1" data-name="Warstwa 1" xmlns="http://www.w3.org/2000/svg" viewBox="0 0 48 48"><defs><style>.cls-1{fill:#ff7f11;}</style></defs><path id="Path_104" data-name="Path 104" class="cls-1" d="M.25,26.41a.7.7,0,0,1,1,.09,2.07,2.07,0,0,0,2.14.66h0a2.74,2.74,0,0,1-.36-.32,2.37,2.37,0,0,1-.63-2A2.19,2.19,0,0,1,3.77,23,2.23,2.23,0,0,1,6,23.34a2.15,2.15,0,0,1,.68,2.15,4.06,4.06,0,0,1-.43,1.13c.22,0,.43,0,.62,0,.41-4.6,3.39-8.8,8.15-11.4a.7.7,0,0,1,.67,1.24C11.19,19,8.44,22.94,8.23,27.24c0,0,0,.05,0,.07a.72.72,0,0,1,0,.21c0,.08,0,.16,0,.24,0,5.12,3.6,8.43,6.63,10.3a.71.71,0,0,1,.33.6l0,4.45a.49.49,0,0,0,.49.49h2.7a.48.48,0,0,0,.47-.38l.53-2.37a.71.71,0,0,1,.84-.54h0a21.63,21.63,0,0,0,5.13.62,21.24,21.24,0,0,0,6-.87.7.7,0,0,1,.87.47l0,.06.55,2.61a.49.49,0,0,0,.48.39H36a.5.5,0,0,0,.49-.48L36.58,38a.73.73,0,0,1,.29-.57c2.72-1.95,4.22-3.71,5-5.88a.7.7,0,0,1,.62-.46l3-.16,1.07-4.2s0,0,0,0L42.2,24.36a.72.72,0,0,1-.33-.38,12.65,12.65,0,0,0-2.56-4.19.68.68,0,0,1-.13-.72l2.28-5.91a5.6,5.6,0,0,0-6.19,2.67.7.7,0,0,1-.92.29c-.34-.17-.69-.33-1-.47a.7.7,0,0,1,.53-1.3,5.38,5.38,0,0,1,.55.24,7,7,0,0,1,8.24-2.54A.7.7,0,0,1,43,13l-2.4,6.21a14,14,0,0,1,2.46,4.07l4.14,2.2A1.44,1.44,0,0,1,48,27.06l-1.1,4.3a1.24,1.24,0,0,1-1.14.94L43,32.44a14.08,14.08,0,0,1-5,5.9l-.06,4.79A1.9,1.9,0,0,1,36,45h-2.7a1.9,1.9,0,0,1-1.85-1.5l-.4-1.89a22.87,22.87,0,0,1-10.47.22l-.37,1.68A1.89,1.89,0,0,1,18.39,45h-2.7a1.9,1.9,0,0,1-1.89-1.89l0-4.08c-4.45-2.86-6.85-6.65-7-11A8.15,8.15,0,0,1,5.89,28c-.27,0-.52-.08-.76-.13a3.86,3.86,0,0,1-1.41.65,4.06,4.06,0,0,1-.92.11A3.34,3.34,0,0,1,.16,27.38.69.69,0,0,1,.25,26.41Zm3.82-.55a1.85,1.85,0,0,0,.7.44,2.44,2.44,0,0,0,.53-1.11.74.74,0,0,0-.21-.78.83.83,0,0,0-.81-.14.84.84,0,0,0-.46.73A1,1,0,0,0,4.07,25.86Z"/><path id="Path_105" data-name="Path 105" class="cls-1" d="M31.94,18.76H16.88a.71.71,0,0,1,0-1.41h.71V4.16A1.16,1.16,0,0,1,18.75,3H30.07a1.16,1.16,0,0,1,1.16,1.16V17.35h.71a.71.71,0,0,1,0,1.41ZM19,4.41V6.15a2.59,2.59,0,0,0,1.75-1.74Zm10.83,0H28.08a2.56,2.56,0,0,0,1.74,1.74Zm0,3.18a4,4,0,0,1-3.18-3.18H22.18A3.94,3.94,0,0,1,19,7.59v9.76H29.83Z"/><path id="Path_106" data-name="Path 106" class="cls-1" d="M24.41,8.94a3.57,3.57,0,1,1-3.57,3.57h0A3.57,3.57,0,0,1,24.41,8.94Zm0,5.74a2.17,2.17,0,1,0-2.17-2.17h0A2.18,2.18,0,0,0,24.41,14.68Z"/><path id="Path_107" data-name="Path 107" class="cls-1" d="M35.18,23a2.64,2.64,0,0,1,3.64-.85,2.47,2.47,0,0,1,.85.85.75.75,0,0,1-.38,1,.76.76,0,0,1-1-.35,1.16,1.16,0,0,0-1.65-.07.27.27,0,0,0-.08.07A.77.77,0,1,1,35.17,23Z"/></svg>