<svg id="Warstwa_1" data-name="Warstwa 1" xmlns="http://www.w3.org/2000/svg" viewBox="0 0 48 48"><defs><style>.cls-1{fill:#ff7f11;}</style></defs><path class="cls-1" d="M46,40.62H44.12V38.18a5.83,5.83,0,0,0-4.2-10.86,6,6,0,0,0-1.25.67V24.63l.07.06a2.1,2.1,0,0,0,2.94-.38,2.12,2.12,0,0,0-.38-2.95l-4.67-3.61a16.91,16.91,0,0,0,2.92-.46.71.71,0,0,0-.37-1.36,15.76,15.76,0,0,1-4.32.45l-.7-.55,6.24-5.75h4.43a8.6,8.6,0,0,1-2.3,4.1.7.7,0,0,0,.95,1c2.94-2.7,3.66-7.51,3.2-11.31A.74.74,0,0,0,46,3.27,20.38,20.38,0,0,0,41.94,3a11.25,11.25,0,0,0-7.35,2.56c-2.21,2-3.06,5.13-3.25,8.1L25.31,9a2.1,2.1,0,0,0-2.56,0l-16,12.33A2.1,2.1,0,0,0,9.2,24.78l.11-.08.07-.06V28a5.82,5.82,0,0,0-6.7,9.52,6.53,6.53,0,0,0,1.25.67v2.44H2.35A2.19,2.19,0,0,0,2,45H45.65A2.19,2.19,0,1,0,46,40.62ZM42,28.33a4.42,4.42,0,1,1-3.35,7.31V29.87A4.37,4.37,0,0,1,42,28.33Zm.7,10.26v2h-1.4v-2Zm-2.79-.4v2.44H38.67V37.51A5.69,5.69,0,0,0,39.93,38.19Zm5.2-29.52H41.92l3.44-3.18A17.78,17.78,0,0,1,45.13,8.67ZM37,5.6a14,14,0,0,1,7.42-1.12L37,11.33Zm-1.43,1,0,0v6.05L33,15l-.33-.25C32.74,12.43,33.19,8.76,35.54,6.6ZM8.4,23.59a.7.7,0,0,1-1-.09l0,0a.69.69,0,0,1,.11-1l0,0L23.57,10.18a.72.72,0,0,1,.86,0l10.37,8h0l.29.22.29.22h0l5.07,3.89a.71.71,0,0,1,.16,1l0,0a.72.72,0,0,1-.56.27.76.76,0,0,1-.43-.14L24.43,12a.72.72,0,0,0-.86,0Zm14,2.3H14a.71.71,0,0,0-.7.7v9.59a.71.71,0,0,0,1.41,0V27.29h7V40.62h-7V39.18a.7.7,0,1,0-1.4,0v1.44H10.73v-17L24,13.38,37.27,23.53v17l-14.15,0v-14A.7.7,0,0,0,22.42,25.89ZM3.09,36.11a4.4,4.4,0,0,1-1.54-3.35h0a4.42,4.42,0,0,1,7.78-2.88v5.78A4.42,4.42,0,0,1,3.09,36.11Zm6.23,1.4v3.12H8.07V38.18A4.86,4.86,0,0,0,9.32,37.51Zm-2.64,1v2.09H5.28V38.53Zm39,5.07H2.35a.79.79,0,1,1,0-1.58h43.3a.79.79,0,1,1,0,1.58Z"/></svg>