<svg id="Warstwa_1" data-name="Warstwa 1" xmlns="http://www.w3.org/2000/svg" viewBox="0 0 48 48"><defs><style>.cls-1{fill:#fff;}.cls-2{fill:#ff7f11;}</style></defs><g id="Group_77" data-name="Group 77"><g id="Group_66" data-name="Group 66"><g id="Group_65" data-name="Group 65"><path id="Path_93" data-name="Path 93" class="cls-1" d="M38.27,5.3h0a.77.77,0,0,0-.77.78.76.76,0,0,0,.77.76.77.77,0,1,0,0-1.54Z"/></g></g><g id="Group_68" data-name="Group 68"><g id="Group_67" data-name="Group 67"><path id="Path_94" data-name="Path 94" class="cls-2" d="M27.27,36.53,20,33.5a.87.87,0,0,1-.54-.8V31.15l1.36-.75a4,4,0,0,0,2.06-3.16v0h.71a2.39,2.39,0,0,0,2.4-2.4V23.34a12.09,12.09,0,0,0,.81-4.45A12,12,0,0,0,20.43,8.36c0-2.59-2.63-4.69-5.81-4.69s-5.77,2.1-5.8,4.69a12.06,12.06,0,0,0-5.56,15v1.47a2.39,2.39,0,0,0,2.4,2.4h.71v0A4,4,0,0,0,8.42,30.4l1.36.75V32.7a.84.84,0,0,1-.53.8L2,36.53a3.22,3.22,0,0,0-2,3v4.89a2.4,2.4,0,0,0,2.39,2.4H26.85a2.42,2.42,0,0,0,2.4-2.4V39.49A3.19,3.19,0,0,0,27.27,36.53ZM24.46,24.81a.87.87,0,0,1-.87.87H23l.31-3.36h.26a.86.86,0,0,1,.87.86ZM14.62,5.2a4.24,4.24,0,0,1,4.16,2.43,12.72,12.72,0,0,0-8.31,0A4.23,4.23,0,0,1,14.62,5.2Zm-9,20.48a.87.87,0,0,1-.87-.87h0V23.18a.87.87,0,0,1,.87-.86h.26l.31,3.36Zm3.51,3.38a2.49,2.49,0,0,1-1.28-2l-.58-6.4a24.23,24.23,0,0,0,4.8-.51A17.18,17.18,0,0,0,22,14.71a.77.77,0,0,0-.09-1.08.76.76,0,0,0-1.08.1c-5,5.93-14.19,5.44-14.32,5.43h0a.77.77,0,0,0-.81.71V20l.08.8H5.66a2.42,2.42,0,0,0-1.43.47A11.19,11.19,0,0,1,4,18.88a10.28,10.28,0,0,1,3-7.31,10.68,10.68,0,0,1,7.61-3.11,10.69,10.69,0,0,1,7.62,3.11,10.28,10.28,0,0,1,3,7.31A11.19,11.19,0,0,1,25,21.26a2.42,2.42,0,0,0-1.43-.47h-.13l.08-.8a.77.77,0,0,0-.22-.61l-1.63-1.62a.76.76,0,1,0-1.11,1l0,0L22,20.21l-.54,6c-.62.55-2.6,1.93-6.81,1.93a.77.77,0,0,0-.06,1.53h.06a13.77,13.77,0,0,0,6.22-1.26,2.44,2.44,0,0,1-.77.66l-4.24,2.36a2.5,2.5,0,0,1-2.43,0Zm.67,5.85a2.38,2.38,0,0,0,1.47-2.21V32l1.36.76a4,4,0,0,0,3.91,0L17.94,32v.7a2.4,2.4,0,0,0,1.47,2.21l.8.33a10.54,10.54,0,0,1-3.75,2.9,5.57,5.57,0,0,1-1.83.48,5.44,5.44,0,0,1-1.83-.48A10.57,10.57,0,0,1,9,35.24ZM4.89,45.25H2.39a.87.87,0,0,1-.86-.87V39.49a1.77,1.77,0,0,1,.11-.6L4.26,41a1.67,1.67,0,0,1,.63,1.31Zm17.94-3v3H6.42v-3a3.19,3.19,0,0,0-1.21-2.51L2.79,37.85l4.77-2a10.91,10.91,0,0,0,6.3,4.2v2.59a.77.77,0,0,0,1.53,0V40.06a10.94,10.94,0,0,0,6.3-4.2l4.77,2L24,39.79A3.21,3.21,0,0,0,22.83,42.3Zm4.89,2.08a.87.87,0,0,1-.87.87H24.36v-3A1.66,1.66,0,0,1,25,41l2.62-2.09a1.73,1.73,0,0,1,.11.6v4.89Z"/></g></g><g id="Group_70" data-name="Group 70"><g id="Group_69" data-name="Group 69"><path id="Path_95" data-name="Path 95" class="cls-2" d="M13.68,22.85A2.64,2.64,0,0,0,10,22a2.87,2.87,0,0,0-.85.85.77.77,0,1,0,1.37.69v0a1.17,1.17,0,0,1,1.66-.08l.07.08a.77.77,0,0,0,1,.37.76.76,0,0,0,.37-1Z"/></g></g><g id="Group_72" data-name="Group 72"><g id="Group_71" data-name="Group 71"><path id="Path_96" data-name="Path 96" class="cls-2" d="M20.05,22.85a2.64,2.64,0,0,0-4.48,0,.76.76,0,1,0,1.36.69v0a1.17,1.17,0,0,1,1.66-.08l.08.08a.76.76,0,0,0,1,.37.77.77,0,0,0,.38-1l0,0Z"/></g></g><g id="Group_74" data-name="Group 74"><g id="Group_73" data-name="Group 73"><path id="Path_97" data-name="Path 97" class="cls-1" d="M38.27,1.23a9.71,9.71,0,0,0-6.44,17A12.66,12.66,0,0,1,29.62,21a.77.77,0,0,0,.49,1.35h.06a12.82,12.82,0,0,0,5.55-2A9.73,9.73,0,0,0,40.81,1.56a9.9,9.9,0,0,0-2.54-.34Zm0,17.93a8.16,8.16,0,0,1-2.46-.38.75.75,0,0,0-.68.12,10.3,10.3,0,0,1-2.86,1.41,13.68,13.68,0,0,0,1.21-1.88.76.76,0,0,0-.2-1,8.2,8.2,0,1,1,5,1.7Z"/></g></g><g id="Group_76" data-name="Group 76"><g id="Group_75" data-name="Group 75"><path id="Path_98" data-name="Path 98" class="cls-1" d="M39.08,15.08h0v-5h0a.76.76,0,0,0,0-1.52H37.45a.76.76,0,0,0,0,1.52h0v5h0a.77.77,0,0,0-.74.79.78.78,0,0,0,.74.74h1.63a.78.78,0,0,0,.74-.79.76.76,0,0,0-.74-.74Z"/></g></g></g></svg>