<svg id="Warstwa_1" data-name="Warstwa 1" xmlns="http://www.w3.org/2000/svg" viewBox="0 0 48 48"><defs><style>.cls-1{fill:#ff7f11;}</style></defs><path class="cls-1" d="M42.53,1.09H7.85A5.48,5.48,0,0,0,2.38,6.56V22.1H2.23A2.61,2.61,0,0,0,0,24.66v8.52A14.78,14.78,0,0,0,11.63,46.89a.73.73,0,0,0,.36,0,15.18,15.18,0,0,0,8-4.71l0,0H44.11A3.89,3.89,0,0,0,48,38.27V14.49a3.91,3.91,0,0,0-3.11-3.81h-.06V3.39A2.3,2.3,0,0,0,42.53,1.09ZM7.85,2.52H42.53a.87.87,0,0,1,.87.87V5.85H6.26a.72.72,0,0,0,0,1.43H43.4V10.6H7.85a4,4,0,0,1,0-8.08Zm4,42.93h0C1.55,42.76,1.43,33.57,1.43,33.18V24.66a1.14,1.14,0,0,1,1-1.13,15.12,15.12,0,0,0,8.57-4,1.14,1.14,0,0,1,.81-.35,1.12,1.12,0,0,1,.81.35,15.15,15.15,0,0,0,8.57,4,1.14,1.14,0,0,1,1,1.13v8.52A13.32,13.32,0,0,1,11.83,45.45ZM46.57,28.83h-4a2.46,2.46,0,1,1,0-4.91h4Zm0-14.34v8h-4a3.89,3.89,0,1,0,0,7.77h4v8A2.45,2.45,0,0,1,45.85,40a2.41,2.41,0,0,1-1.74.72h-23l.08-.12a15.24,15.24,0,0,0,2.41-7.42V24.66a2.6,2.6,0,0,0-2.22-2.55,13.74,13.74,0,0,1-7.76-3.6,2.63,2.63,0,0,0-3.66,0A12.91,12.91,0,0,1,3.9,21.78l-.09,0V10.25l.13.13A5.49,5.49,0,0,0,7.85,12H44.11A2.46,2.46,0,0,1,46.57,14.49Z"/><path class="cls-1" d="M42.53,25.66a.72.72,0,1,0,.71.72A.72.72,0,0,0,42.53,25.66Z"/><path class="cls-1" d="M29.05,13.77H27.47a.72.72,0,1,0,0,1.43h1.58a.72.72,0,1,0,0-1.43Z"/><path class="cls-1" d="M44.11,13.77H32.23a.72.72,0,1,0,0,1.43H44.11a.72.72,0,1,0,0-1.43Z"/><path class="cls-1" d="M19.88,25.07a17.05,17.05,0,0,1-7.6-3.51.7.7,0,0,0-.47-.17.69.69,0,0,0-.46.17,17.05,17.05,0,0,1-7.6,3.51.72.72,0,0,0-.57.7v7.41a11.25,11.25,0,0,0,8.43,10.41.75.75,0,0,0,.42,0,11.25,11.25,0,0,0,8.42-10.41V25.77A.72.72,0,0,0,19.88,25.07ZM19,33.17a9.78,9.78,0,0,1-7.18,9h-.05a9.77,9.77,0,0,1-7.19-9V26.35l.06,0a18.31,18.31,0,0,0,7.11-3.27l0,0,0,0A18.2,18.2,0,0,0,19,26.33l.06,0Z"/><path class="cls-1" d="M9.42,26.46a.73.73,0,0,0-.49.2L6.55,29a.71.71,0,0,0-.16.78.73.73,0,0,0,.67.44.67.67,0,0,0,.5-.21l2.38-2.37a.73.73,0,0,0,0-1A.71.71,0,0,0,9.42,26.46Z"/><path class="cls-1" d="M14.69,26.67a.74.74,0,0,0-1,0L6.55,33.8a.71.71,0,0,0,1,1l7.14-7.13A.74.74,0,0,0,14.69,26.67Z"/></svg>