<svg id="Warstwa_1" data-name="Warstwa 1" xmlns="http://www.w3.org/2000/svg" viewBox="0 0 48 48"><defs><style>.cls-1{fill:#fff;}.cls-2{fill:#ff7f11;}</style></defs><g id="Group_64" data-name="Group 64"><path id="Path_83" data-name="Path 83" class="cls-1" d="M30.67,12.65a.7.7,0,0,0,.7-.7.71.71,0,0,0-.7-.71H17.33a.71.71,0,0,0-.7.71.7.7,0,0,0,.7.7H30.67Z"/><path id="Path_84" data-name="Path 84" class="cls-1" d="M12.8,18.77V20.6a1.56,1.56,0,0,0,1.56,1.56H33.64A1.56,1.56,0,0,0,35.2,20.6V18.77a1.56,1.56,0,0,0-1.56-1.56H14.36A1.56,1.56,0,0,0,12.8,18.77Zm21,0V20.6a.16.16,0,0,1-.15.16H14.36a.16.16,0,0,1-.15-.16h0V18.77a.16.16,0,0,1,.15-.16H33.64A.16.16,0,0,1,33.79,18.77Z"/><path id="Path_85" data-name="Path 85" class="cls-1" d="M12.8,28.56a1.56,1.56,0,0,0,1.56,1.56H33.64a1.56,1.56,0,0,0,1.56-1.56V26.73a1.56,1.56,0,0,0-1.56-1.57H14.36a1.56,1.56,0,0,0-1.56,1.57Zm1.41-1.83a.16.16,0,0,1,.15-.16H33.64a.16.16,0,0,1,.16.16v1.83a.16.16,0,0,1-.16.15H14.36a.15.15,0,0,1-.15-.15Z"/><path id="Path_86" data-name="Path 86" class="cls-1" d="M25.63,33.62H22.36A2.42,2.42,0,0,0,20,36v.1a2.42,2.42,0,0,0,2.41,2.41h3.27a2.42,2.42,0,0,0,2.42-2.41V36A2.43,2.43,0,0,0,25.63,33.62Zm1,2.51a1,1,0,0,1-1,1H22.36a1,1,0,0,1-1-1V36a1,1,0,0,1,1-1h3.27a1,1,0,0,1,1,1Z"/><path id="Path_87" data-name="Path 87" class="cls-2" d="M27.34,43.08H9.26A1.31,1.31,0,0,1,8,41.77V13.35a.71.71,0,0,0-1.41,0h0V41.77a2.71,2.71,0,0,0,2.72,2.71H27.34a.7.7,0,1,0,0-1.4Z"/><path id="Path_88" data-name="Path 88" class="cls-2" d="M39.52.13C38.6-.14,38.88.11,9.26,0A2.72,2.72,0,0,0,6.54,2.73v7.81a.71.71,0,1,0,1.41,0v-2h32.1V41.77a1.29,1.29,0,0,1-.8,1.2.72.72,0,0,0-.37.93.7.7,0,0,0,.65.42,2.59,2.59,0,0,0,1.93-2.55v-39A2.71,2.71,0,0,0,39.52.13Zm.53,7H8V2.73A1.3,1.3,0,0,1,9.07,1.44c.18,0-1.42,0,29.67,0a1.31,1.31,0,0,1,1.31,1.31Z"/><path id="Path_89" data-name="Path 89" class="cls-2" d="M11.71,2.12a2.15,2.15,0,1,0,2.15,2.15A2.15,2.15,0,0,0,11.71,2.12Zm0,2.9A.76.76,0,0,1,11,4.27a.75.75,0,0,1,.75-.74.74.74,0,0,1,.74.74A.75.75,0,0,1,11.71,5Z"/><path id="Path_90" data-name="Path 90" class="cls-2" d="M17.33,2.12a2.15,2.15,0,1,0,2.15,2.15A2.15,2.15,0,0,0,17.33,2.12Zm0,2.9a.75.75,0,0,1-.74-.75.75.75,0,0,1,1.49,0A.75.75,0,0,1,17.33,5Z"/><path id="Path_91" data-name="Path 91" class="cls-2" d="M23,2.12a2.15,2.15,0,1,0,2.15,2.15A2.15,2.15,0,0,0,23,2.12ZM23,5a.76.76,0,0,1-.75-.75A.75.75,0,0,1,23,3.53a.74.74,0,0,1,.74.74A.75.75,0,0,1,23,5Z"/><path id="Path_92" data-name="Path 92" class="cls-2" d="M39.19,40.79a1.2,1.2,0,0,0-.6-1l-7.3-4.21a1.21,1.21,0,0,0-1.64.44,1.25,1.25,0,0,0-.16.6V45a1.2,1.2,0,0,0,1.8,1l1.77-1,1.37,2.35a1.25,1.25,0,0,0,1.71.46l1.57-.91a1.25,1.25,0,0,0,.46-1.71l-1.36-2.36,1.77-1A1.19,1.19,0,0,0,39.19,40.79Zm-3.18.9a1.27,1.27,0,0,0-.47,1.75h0l1.35,2.34-1.32.76L34.22,44.2a1.28,1.28,0,0,0-1.75-.46l-1.57.9v-7.7l6.67,3.85Z"/></g></svg>