<svg id="Warstwa_1" data-name="Warstwa 1" xmlns="http://www.w3.org/2000/svg" viewBox="0 0 48 48"><defs><style>.cls-1{fill:#ff7f11;}.cls-2{fill:#fff;}</style></defs><g id="Group_80" data-name="Group 80"><path id="Path_99" data-name="Path 99" class="cls-1" d="M47.74,26.76a.71.71,0,0,0-1,.1,2.06,2.06,0,0,1-2.14.65h0a2.74,2.74,0,0,0,.36-.32,2.41,2.41,0,0,0,.62-2,2.18,2.18,0,0,0-1.34-1.87A2.25,2.25,0,0,0,42,23.7a2.15,2.15,0,0,0-.67,2.15A3.88,3.88,0,0,0,41.75,27l-.62,0c-.41-4.6-3.39-8.8-8.15-11.4a.7.7,0,0,0-.68,1.23c4.5,2.46,7.25,6.45,7.46,10.75,0,0,0,0,0,.07a.75.75,0,0,0,0,.21v.24c0,5.12-3.6,8.42-6.62,10.3a.69.69,0,0,0-.33.59l0,4.46a.5.5,0,0,1-.49.49h-2.7a.49.49,0,0,1-.48-.38L28.6,41.2a.7.7,0,0,0-.83-.53h0a21.27,21.27,0,0,1-11.16-.24.71.71,0,0,0-.88.47s0,0,0,.06l-.56,2.61a.47.47,0,0,1-.47.39H12a.49.49,0,0,1-.49-.48l-.07-5.15a.7.7,0,0,0-.29-.56c-2.72-2-4.21-3.71-5-5.88a.7.7,0,0,0-.63-.46l-3-.17L1.41,27.07a0,0,0,0,1,0,0l4.37-2.32a.68.68,0,0,0,.33-.38,13,13,0,0,1,2.56-4.19.72.72,0,0,0,.14-.73l-2.28-5.9a5.58,5.58,0,0,1,6.18,2.67.71.71,0,0,0,.92.29c.35-.17.7-.33,1-.47a.71.71,0,0,0,.35-.93.68.68,0,0,0-.89-.37l-.55.23a7,7,0,0,0-8.24-2.53.71.71,0,0,0-.4.91l2.39,6.21A14.2,14.2,0,0,0,4.9,23.6L.76,25.8A1.44,1.44,0,0,0,0,27.42l1.1,4.3a1.24,1.24,0,0,0,1.14.94L5,32.8a14.11,14.11,0,0,0,5,5.91l.06,4.79A1.91,1.91,0,0,0,12,45.37h2.7a1.91,1.91,0,0,0,1.85-1.5l.4-1.89a22.82,22.82,0,0,0,10.46.22l.38,1.68a1.87,1.87,0,0,0,1.85,1.48h2.7a1.89,1.89,0,0,0,1.89-1.88l0-4.08c4.45-2.86,6.84-6.65,7-11a8.15,8.15,0,0,0,.93-.06c.27,0,.53-.08.76-.13a4.16,4.16,0,0,0,1.42.65,4.06,4.06,0,0,0,.92.11,3.38,3.38,0,0,0,2.64-1.24A.7.7,0,0,0,47.74,26.76Zm-3.81-.54a1.85,1.85,0,0,1-.7.44,2.56,2.56,0,0,1-.54-1.11.74.74,0,0,1,.21-.78.87.87,0,0,1,.54-.19.81.81,0,0,1,.27.05.82.82,0,0,1,.46.73,1,1,0,0,1-.24.86Z"/><path id="Path_100" data-name="Path 100" class="cls-1" d="M16.06,19.12H31.12a.71.71,0,0,0,0-1.41h-.71V3.79a1.16,1.16,0,0,0-1.16-1.16H17.93a1.16,1.16,0,0,0-1.16,1.16V17.71h-.71a.71.71,0,1,0,0,1.41ZM29,4V5.78A2.56,2.56,0,0,1,27.26,4ZM18.18,4h1.74a2.54,2.54,0,0,1-1.74,1.74Zm0,3.18A3.94,3.94,0,0,0,21.36,4h4.46A4,4,0,0,0,29,7.22V17.71H18.18Z"/><path id="Path_101" data-name="Path 101" class="cls-2" d="M23.59,9.08a3.57,3.57,0,1,0,3.57,3.57h0A3.57,3.57,0,0,0,23.59,9.08Zm0,5.74a2.17,2.17,0,1,1,2.16-2.17h0A2.17,2.17,0,0,1,23.59,14.82Z"/><g id="Group_79" data-name="Group 79"><g id="Group_78" data-name="Group 78"><path id="Path_102" data-name="Path 102" class="cls-2" d="M12.82,23.35a2.64,2.64,0,0,0-3.64-.85,2.47,2.47,0,0,0-.85.85.76.76,0,0,0,.37,1,.77.77,0,0,0,1-.35,1.17,1.17,0,0,1,1.65-.08.6.6,0,0,1,.08.08.77.77,0,0,0,1,.38.76.76,0,0,0,.38-1Z"/></g></g></g></svg>